<?xml version="1.0" encoding="utf-8"?>
<!-- Generator: Adobe Illustrator 25.0.0, SVG Export Plug-In . SVG Version: 6.00 Build 0)  -->
<svg version="1.1" id="Layer_1" xmlns="http://www.w3.org/2000/svg" xmlns:xlink="http://www.w3.org/1999/xlink" x="0px" y="0px"
	 viewBox="0 0 603 236.2" style="enable-background:new 0 0 603 236.2;" xml:space="preserve">
<style type="text/css">
	.st0{fill:#10123E;}
	.st1{fill:#4064AF;}
	.st2{fill:#27C4F1;}
</style>
<g>
	<path class="st0" d="M254,94.6v4.7c0,1.7-1.4,3.1-3.1,3.1h-11.5v46.7c0,1.7-1.3,3.1-3,3.1h-5.6c-1.6,0-3-1.4-3-3.1v-46.7h-11.5
		c-1.6,0-3-1.4-3-3.1v-4.7c0-1.7,1.4-3.1,3-3.1h34.8C252.6,91.5,254,92.9,254,94.6z"/>
	<path class="st0" d="M306.4,134.5c0,9.5-6.7,18.7-22.7,18.7c-10,0-19.1-3.6-23.1-11.3c-0.9-1.7,0-3.8,1.8-4.3l5.5-1.7
		c1.4-0.4,2.9,0.1,3.6,1.3c1.7,3,5.4,5.8,12.1,5.8c6.1,0,10.9-2.3,10.9-7.6c0-6-6.9-6.4-16.5-8.9c-12.2-3-16.3-9.1-16.3-17.5
		c0-11.5,8.8-18.7,21.4-18.7c8.8,0,16,3.8,19.4,10.8c0.9,1.7-0.2,3.8-2.1,4.3l-5.5,1.3c-1.3,0.3-2.7-0.3-3.4-1.5
		c-1.4-2.5-4.3-4.7-9.1-4.7c-4.9,0-9.2,2.6-9.2,7.6c0,6.8,7.7,7.8,13.4,9.1C301.1,120.6,306.4,124.8,306.4,134.5z"/>
	<path class="st0" d="M359.3,130.3c0,12.8-10,23.1-23.3,23.1c-13.2,0-23.2-10.2-23.2-23.1c0-12.9,10-23.1,23.2-23.1
		C349.3,107.2,359.3,117.3,359.3,130.3z M348,130.3c0-6.9-4.6-12.5-12-12.5c-7.3,0-11.9,5.6-11.9,12.5c0,6.9,4.6,12.5,11.9,12.5
		C343.4,142.8,348,137.1,348,130.3z"/>
	<path class="st0" d="M397.6,138.7c0.8-0.9,2-1.1,3-0.5l5.6,3.2c1.2,0.7,1.6,2.3,0.7,3.4c-4.2,5.2-10.7,8.5-18.2,8.5
		c-13.2,0-23.3-10.2-23.3-23c0-12.9,10.1-23.1,23.3-23.1c7.6,0,14.1,3.3,18.2,8.5c0.9,1.1,0.5,2.7-0.7,3.5l-5.6,3.1
		c-1,0.6-2.2,0.3-3-0.5c-2.1-2.4-5.1-4-9-4c-7.4,0-12,5.6-12,12.5c0,6.8,4.6,12.5,12,12.5C392.5,142.8,395.6,141.2,397.6,138.7z"/>
	<path class="st0" d="M415.4,95.9c0-3.2,2.6-5.9,5.8-5.9c3.3,0,5.9,2.7,5.9,5.9c0,3.2-2.6,5.9-5.9,5.9
		C418,101.8,415.4,99.1,415.4,95.9z M415.8,149.1v-37.8c0-1.7,1.4-3.1,3.1-3.1h4.8c1.7,0,3.1,1.4,3.1,3.1v37.8
		c0,1.7-1.4,3.1-3.1,3.1h-4.8C417.2,152.2,415.8,150.8,415.8,149.1z"/>
	<path class="st0" d="M474.1,108.2h4.8c1.7,0,3.1,1.4,3.1,3.1v37.8c0,1.7-1.4,3.1-3.1,3.1h-4.8c-1.7,0-3.1-1.4-3.1-3.1V147
		c-2.8,3.6-7.2,6.2-14.1,6.2c-13.6,0-21.4-11.5-21.4-23c0-11.5,7.8-23.1,21.4-23.1c6.9,0,11.3,2.6,14.1,6.2v-2.1
		C471,109.6,472.4,108.2,474.1,108.2z M470.5,130.3c0-6.9-4.3-12.5-11.9-12.5s-11.9,5.7-11.9,12.5c0,6.7,4.3,12.5,11.9,12.5
		S470.5,137,470.5,130.3z"/>
	<path class="st0" d="M496.4,91.5h4.9c1.6,0,3,1.4,3,3.1v54.5c0,1.7-1.4,3.1-3,3.1h-4.9c-1.7,0-3.1-1.4-3.1-3.1V94.6
		C493.3,92.9,494.7,91.5,496.4,91.5z"/>
</g>
<g>
	<path class="st1" d="M172.7,71.4c0-1.2-1-2.2-2.2-2.2h-36.7H114c-1.2,0-2.2,1-2.2,2.2v19.9v36.9c0,1.2,1,2.2,2.2,2.2h17.7
		c1.2,0,2.2-1,2.2-2.2V93.5c0-1.2,1-2.2,2.2-2.2h34.5c1.2,0,2.2-1,2.2-2.2V71.4z"/>
	<path class="st2" d="M150.7,108v34.7c0,1.2-1,2.2-2.2,2.2h-34c-1.2,0-2.2,1-2.2,2.2v17.7c0,1.2,1,2.2,2.2,2.2h36.2h19.9
		c1.2,0,2.2-1,2.2-2.2v-19.9V108c0-1.2-1-2.2-2.2-2.2h-17.7C151.7,105.8,150.7,106.8,150.7,108z"/>
	<path class="st2" d="M95.8,91.3H78.2c-1.3,0-2.3-1-2.3-2.3V71.5c0-1.3,1-2.3,2.3-2.3h17.5c1.3,0,2.3,1,2.3,2.3V89
		C98,90.3,97,91.3,95.8,91.3z"/>
</g>
</svg>
